<svg width="22" height="16" viewBox="0 0 22 16" fill="none" xmlns="http://www.w3.org/2000/svg">
<path d="M12 13.3127C12.7333 12.9627 13.471 12.7 14.213 12.5247C14.9543 12.35 15.7167 12.2627 16.5 12.2627C17.1 12.2627 17.6877 12.3127 18.263 12.4127C18.8377 12.5127 19.4167 12.6627 20 12.8627V2.9627C19.45 2.72936 18.8793 2.55436 18.288 2.4377C17.696 2.32103 17.1 2.2627 16.5 2.2627C15.7167 2.2627 14.9417 2.3627 14.175 2.5627C13.4083 2.7627 12.6833 3.0627 12 3.4627V13.3127ZM11 15.7377C10.7667 15.7377 10.546 15.7087 10.338 15.6507C10.1293 15.592 9.93333 15.5127 9.75 15.4127C9.1 15.0294 8.41667 14.742 7.7 14.5507C6.98333 14.3587 6.25 14.2627 5.5 14.2627C4.8 14.2627 4.11267 14.3544 3.438 14.5377C2.76267 14.721 2.11667 14.9794 1.5 15.3127C1.15 15.496 0.812667 15.4877 0.488 15.2877C0.162667 15.0877 0 14.796 0 14.4127V2.3627C0 2.17936 0.046 2.00436 0.138 1.8377C0.229333 1.67103 0.366667 1.54603 0.55 1.4627C1.33333 1.07936 2.13767 0.783362 2.963 0.574695C3.78767 0.366695 4.63333 0.262695 5.5 0.262695C6.46667 0.262695 7.41267 0.387695 8.338 0.637695C9.26267 0.887695 10.15 1.2627 11 1.7627C11.85 1.2627 12.7377 0.887695 13.663 0.637695C14.5877 0.387695 15.5333 0.262695 16.5 0.262695C17.3667 0.262695 18.2127 0.366695 19.038 0.574695C19.8627 0.783362 20.6667 1.07936 21.45 1.4627C21.6333 1.54603 21.771 1.67103 21.863 1.8377C21.9543 2.00436 22 2.17936 22 2.3627V14.4127C22 14.796 21.8377 15.0877 21.513 15.2877C21.1877 15.4877 20.85 15.496 20.5 15.3127C19.8833 14.9794 19.2373 14.721 18.562 14.5377C17.8873 14.3544 17.2 14.2627 16.5 14.2627C15.75 14.2627 15.0167 14.3587 14.3 14.5507C13.5833 14.742 12.9 15.0294 12.25 15.4127C12.0667 15.5127 11.871 15.592 11.663 15.6507C11.4543 15.7087 11.2333 15.7377 11 15.7377Z" fill="white"/>
</svg>
