<svg width="22" height="6" viewBox="0 0 22 6" fill="none" xmlns="http://www.w3.org/2000/svg">
<path d="M5.28771 3.00038C5.28771 1.76441 4.26824 0.773438 2.97385 0.773438C1.70233 0.773438 0.682861 1.76441 0.682861 3.00038C0.682861 4.23635 1.70233 5.22732 2.97385 5.22732C4.26824 5.22732 5.28771 4.23635 5.28771 3.00038ZM13.7644 3.00038C13.7644 1.76441 12.7564 0.773438 11.4848 0.773438C10.2133 0.773438 9.20534 1.76441 9.20534 3.00038C9.20534 4.23635 10.2133 5.22732 11.4848 5.22732C12.7564 5.22732 13.7644 4.23635 13.7644 3.00038ZM22.2868 3.00038C22.2868 1.76441 21.2559 0.773438 19.9959 0.773438C18.7015 0.773438 17.682 1.76441 17.682 3.00038C17.682 4.23635 18.7015 5.22732 19.9959 5.22732C21.2559 5.22732 22.2868 4.23635 22.2868 3.00038Z" fill="white"/>
</svg>
