<svg width="103" height="110" viewBox="0 0 103 110" fill="none" xmlns="http://www.w3.org/2000/svg">
<circle cx="51.5" cy="27.5" r="27" stroke="#09A6F3"/>
<g filter="url(#filter0_d_398_2982)">
<path d="M51.5 26.1884C50.2611 26.1884 49.2418 25.798 48.4422 25.0173C47.6426 24.2365 47.2428 23.2413 47.2428 22.0317C47.2428 20.814 47.6426 19.8168 48.4422 19.0401C49.2418 18.2634 50.2611 17.875 51.5 17.875C52.7389 17.875 53.7581 18.2634 54.5578 19.0401C55.3574 19.8168 55.7572 20.814 55.7572 22.0317C55.7572 23.2413 55.3574 24.2365 54.5578 25.0173C53.7581 25.798 52.7389 26.1884 51.5 26.1884ZM43.3557 35.75C42.9444 35.75 42.5948 35.6094 42.3069 35.3283C42.019 35.0472 41.875 34.7058 41.875 34.3042V33.3717C41.875 32.6986 42.0576 32.1122 42.4229 31.6126C42.7881 31.113 43.2628 30.7291 43.8469 30.4608C45.1977 29.8744 46.4999 29.4326 47.7536 29.1354C49.0074 28.8383 50.2561 28.6897 51.5 28.6897C52.7439 28.6897 53.9893 28.8415 55.2365 29.1451C56.4836 29.4487 57.7826 29.8873 59.1334 30.4608C59.7306 30.7291 60.2119 31.113 60.5771 31.6126C60.9424 32.1122 61.125 32.6986 61.125 33.3717V34.3042C61.125 34.7058 60.981 35.0472 60.6931 35.3283C60.4052 35.6094 60.0556 35.75 59.6443 35.75H43.3557Z" fill="#09A6F3"/>
</g>
<defs>
<filter id="filter0_d_398_2982" x="0.924999" y="9.425" width="101.15" height="99.775" filterUnits="userSpaceOnUse" color-interpolation-filters="sRGB">
<feFlood flood-opacity="0" result="BackgroundImageFix"/>
<feColorMatrix in="SourceAlpha" type="matrix" values="0 0 0 0 0 0 0 0 0 0 0 0 0 0 0 0 0 0 127 0" result="hardAlpha"/>
<feOffset dy="32.5"/>
<feGaussianBlur stdDeviation="20.475"/>
<feComposite in2="hardAlpha" operator="out"/>
<feColorMatrix type="matrix" values="0 0 0 0 0.262745 0 0 0 0 0.0941176 0 0 0 0 1 0 0 0 0.28 0"/>
<feBlend mode="normal" in2="BackgroundImageFix" result="effect1_dropShadow_398_2982"/>
<feBlend mode="normal" in="SourceGraphic" in2="effect1_dropShadow_398_2982" result="shape"/>
</filter>
</defs>
</svg>
