<svg width="23" height="5" viewBox="0 0 23 5" fill="none" xmlns="http://www.w3.org/2000/svg">
<path d="M5.12243 2.22694C5.12243 0.990971 4.10296 0 2.80857 0C1.53705 0 0.517578 0.990971 0.517578 2.22694C0.517578 3.46291 1.53705 4.45388 2.80857 4.45388C4.10296 4.45388 5.12243 3.46291 5.12243 2.22694ZM13.5991 2.22694C13.5991 0.990971 12.5911 0 11.3196 0C10.048 0 9.04006 0.990971 9.04006 2.22694C9.04006 3.46291 10.048 4.45388 11.3196 4.45388C12.5911 4.45388 13.5991 3.46291 13.5991 2.22694ZM22.1215 2.22694C22.1215 0.990971 21.0906 0 19.8306 0C18.5362 0 17.5167 0.990971 17.5167 2.22694C17.5167 3.46291 18.5362 4.45388 19.8306 4.45388C21.0906 4.45388 22.1215 3.46291 22.1215 2.22694Z" fill="white"/>
</svg>
