<svg width="20" height="20" viewBox="0 0 20 20" fill="none" xmlns="http://www.w3.org/2000/svg">
<path d="M19.4889 2.47778L17.9444 0.611111C17.6444 0.233333 17.1889 0 16.6667 0H3.33333C2.81111 0 2.35556 0.233333 2.04444 0.611111L0.511111 2.47778C0.188889 2.85556 0 3.35556 0 3.88889V17.7778C0 19 1 20 2.22222 20H17.7778C19 20 20 19 20 17.7778V3.88889C20 3.35556 19.8111 2.85556 19.4889 2.47778ZM10 16.1111L3.88889 10H7.77778V7.77778H12.2222V10H16.1111L10 16.1111ZM2.35556 2.22222L3.25556 1.11111H16.5889L17.6333 2.22222H2.35556Z" fill="white"/>
</svg>
