<svg width="22" height="16" viewBox="0 0 22 16" fill="none" xmlns="http://www.w3.org/2000/svg">
<path d="M12 13.05C12.7333 12.7 13.471 12.4373 14.213 12.262C14.9543 12.0873 15.7167 12 16.5 12C17.1 12 17.6877 12.05 18.263 12.15C18.8377 12.25 19.4167 12.4 20 12.6V2.7C19.45 2.46667 18.8793 2.29167 18.288 2.175C17.696 2.05833 17.1 2 16.5 2C15.7167 2 14.9417 2.1 14.175 2.3C13.4083 2.5 12.6833 2.8 12 3.2V13.05ZM11 15.475C10.7667 15.475 10.546 15.446 10.338 15.388C10.1293 15.3293 9.93333 15.25 9.75 15.15C9.1 14.7667 8.41667 14.4793 7.7 14.288C6.98333 14.096 6.25 14 5.5 14C4.8 14 4.11267 14.0917 3.438 14.275C2.76267 14.4583 2.11667 14.7167 1.5 15.05C1.15 15.2333 0.812667 15.225 0.488 15.025C0.162667 14.825 0 14.5333 0 14.15V2.1C0 1.91667 0.046 1.74167 0.138 1.575C0.229333 1.40833 0.366667 1.28333 0.55 1.2C1.33333 0.816666 2.13767 0.520666 2.963 0.312C3.78767 0.104 4.63333 0 5.5 0C6.46667 0 7.41267 0.125 8.338 0.375C9.26267 0.625 10.15 1 11 1.5C11.85 1 12.7377 0.625 13.663 0.375C14.5877 0.125 15.5333 0 16.5 0C17.3667 0 18.2127 0.104 19.038 0.312C19.8627 0.520666 20.6667 0.816666 21.45 1.2C21.6333 1.28333 21.771 1.40833 21.863 1.575C21.9543 1.74167 22 1.91667 22 2.1V14.15C22 14.5333 21.8377 14.825 21.513 15.025C21.1877 15.225 20.85 15.2333 20.5 15.05C19.8833 14.7167 19.2373 14.4583 18.562 14.275C17.8873 14.0917 17.2 14 16.5 14C15.75 14 15.0167 14.096 14.3 14.288C13.5833 14.4793 12.9 14.7667 12.25 15.15C12.0667 15.25 11.871 15.3293 11.663 15.388C11.4543 15.446 11.2333 15.475 11 15.475Z" fill="white"/>
</svg>
