<svg width="1440" height="1024" viewBox="0 0 1440 1024" fill="none" xmlns="http://www.w3.org/2000/svg">
<path opacity="0.0144928" d="M1398.33 1255.02L1616.73 1029.14C1620.95 1024.78 1623.27 1018.93 1623.2 1012.87L1617.77 562.387C1617.71 557.62 1616.17 552.989 1613.37 549.134L1381.39 230.253C1376.3 223.263 1367.73 219.714 1359.19 221.066L1088.73 263.902C1080.2 265.255 1073.14 271.279 1070.46 279.498L948.377 654.458C946.901 658.991 946.87 663.871 948.288 668.422L1082.33 1098.54C1084.14 1104.32 1088.15 1109.17 1093.5 1112.01L1371.01 1259.34C1380.07 1264.15 1391.21 1262.38 1398.33 1255.02Z" stroke="url(#paint0_linear_962_3433)" stroke-width="4"/>
<path opacity="0.0289855" d="M1348.98 1254.99L1577.59 1042.76C1582.03 1038.63 1584.67 1032.9 1584.92 1026.84L1603.12 580.839C1603.31 576.062 1602.01 571.342 1599.4 567.337L1385.84 239.892C1381.12 232.661 1372.76 228.68 1364.17 229.583L1093.47 258.035C1084.88 258.937 1077.53 264.571 1074.42 272.624L933.602 637.315C931.88 641.776 931.591 646.662 932.775 651.295L1043.31 1083.76C1044.81 1089.65 1048.58 1094.7 1053.79 1097.81L1321.53 1257.88C1330.3 1263.12 1341.48 1261.95 1348.98 1254.99Z" stroke="url(#paint1_linear_962_3433)" stroke-width="4"/>
<path opacity="0.0434783" d="M1299.93 1253.47L1537.92 1055.32C1542.59 1051.43 1545.53 1045.85 1546.1 1039.8L1587.45 599.51C1587.89 594.735 1586.84 589.939 1584.43 585.793L1389.54 250.83C1385.21 243.378 1377.07 238.976 1368.46 239.428L1098.27 253.588C1089.66 254.039 1082.02 259.267 1078.49 267.131L919.688 620.631C917.722 625.006 917.174 629.886 918.119 634.588L1005.26 1068.14C1006.46 1074.1 1009.97 1079.35 1015.02 1082.73L1272.42 1254.91C1280.9 1260.58 1292.09 1259.99 1299.93 1253.47Z" stroke="url(#paint2_linear_962_3433)" stroke-width="4"/>
<path opacity="0.057971" d="M1251.26 1250.48L1497.79 1066.82C1502.68 1063.18 1505.92 1057.75 1506.81 1051.73L1570.75 618.346C1571.45 613.587 1570.64 608.727 1568.44 604.45L1392.43 263.017C1388.48 255.364 1380.6 250.555 1371.99 250.555L1103.06 250.555C1094.45 250.555 1086.56 255.364 1082.61 263.017L906.603 604.45C904.399 608.727 903.591 613.587 904.293 618.346L968.235 1051.73C969.124 1057.75 972.365 1063.18 977.248 1066.82L1223.78 1250.48C1231.93 1256.56 1243.11 1256.56 1251.26 1250.48Z" stroke="url(#paint3_linear_962_3433)" stroke-width="4"/>
<path opacity="0.0724638" d="M1203.06 1246.06L1457.27 1077.23C1462.35 1073.85 1465.88 1068.6 1467.09 1062.62L1553.02 637.288C1553.98 632.558 1553.42 627.646 1551.43 623.25L1394.44 276.394C1390.89 268.561 1383.27 263.359 1374.69 262.909L1107.76 248.92C1099.17 248.47 1091.05 252.847 1086.7 260.266L894.314 588.811C891.875 592.976 890.808 597.802 891.264 602.607L932.264 1034.59C932.841 1040.66 935.804 1046.26 940.504 1050.14L1175.68 1244.63C1183.49 1251.09 1194.61 1251.67 1203.06 1246.06Z" stroke="url(#paint4_linear_962_3433)" stroke-width="4"/>
<path opacity="0.0869565" d="M1155.39 1240.25L1416.41 1086.54C1421.68 1083.44 1425.49 1078.37 1427.01 1072.46L1534.27 656.279C1535.48 651.59 1535.17 646.64 1533.41 642.134L1395.51 290.901C1392.37 282.909 1385.04 277.33 1376.5 276.433L1112.29 248.663C1103.75 247.765 1095.42 251.699 1090.69 258.864L882.786 573.751C880.119 577.791 878.794 582.57 879.001 587.407L897.382 1016.79C897.643 1022.9 900.321 1028.64 904.824 1032.77L1128.18 1237.39C1135.64 1244.22 1146.68 1245.38 1155.39 1240.25Z" stroke="url(#paint5_linear_962_3433)" stroke-width="4"/>
<path opacity="0.101449" d="M1108.33 1233.09L1375.28 1094.75C1380.71 1091.93 1384.8 1087.07 1386.64 1081.24L1514.49 675.263C1515.95 670.631 1515.91 665.655 1514.36 661.049L1395.59 306.479C1392.87 298.349 1385.85 292.409 1377.38 291.068L1116.59 249.763C1108.12 248.422 1099.61 251.902 1094.51 258.793L871.985 559.307C869.095 563.21 867.514 567.928 867.47 572.785L863.616 998.398C863.56 1004.51 865.944 1010.4 870.239 1014.76L1081.37 1228.82C1088.45 1236 1099.38 1237.73 1108.33 1233.09Z" stroke="url(#paint6_linear_962_3433)" stroke-width="4"/>
<path opacity="0.115942" d="M1061.94 1224.63L1333.93 1101.85C1339.52 1099.33 1343.87 1094.68 1346.01 1088.95L1493.7 694.187C1495.4 689.623 1495.62 684.634 1494.31 679.941L1394.63 323.063C1392.33 314.817 1385.64 308.532 1377.26 306.752L1120.59 252.194C1112.21 250.414 1103.54 253.433 1098.08 260.03L861.871 545.512C858.764 549.267 856.931 553.911 856.634 558.775L830.988 979.474C830.615 985.589 832.698 991.601 836.774 996.175L1035.31 1218.97C1042 1226.48 1052.78 1228.77 1061.94 1224.63Z" stroke="url(#paint7_linear_962_3433)" stroke-width="4"/>
<path opacity="0.130435" d="M1016.3 1214.92L1292.43 1107.84C1298.16 1105.62 1302.75 1101.21 1305.2 1095.58L1471.9 712.993C1473.85 708.51 1474.33 703.522 1473.25 698.753L1392.59 340.584C1390.71 332.244 1384.36 325.634 1376.1 323.421L1124.21 255.926C1115.95 253.713 1107.14 256.263 1101.35 262.547L852.406 532.398C849.091 535.991 847.007 540.548 846.457 545.406L799.523 960.088C798.833 966.186 800.608 972.306 804.454 977.088L990.058 1207.89C996.338 1215.7 1006.95 1218.54 1016.3 1214.92Z" stroke="url(#paint8_linear_962_3433)" stroke-width="4"/>
<path opacity="0.144928" d="M971.447 1204.01L1250.84 1112.73C1256.68 1110.82 1261.52 1106.65 1264.27 1101.16L1449.11 731.627C1451.3 727.24 1452.03 722.265 1451.2 717.431L1389.41 358.974C1387.96 350.562 1381.97 343.645 1373.85 341.007L1127.38 260.924C1119.26 258.286 1110.35 260.361 1104.23 266.315L843.548 519.992C840.032 523.414 837.702 527.869 836.899 532.709L769.233 940.309C768.226 946.372 769.688 952.586 773.293 957.565L945.675 1195.63C951.535 1203.72 961.95 1207.11 971.447 1204.01Z" stroke="url(#paint9_linear_962_3433)" stroke-width="4"/>
<path opacity="0.15942" d="M927.456 1191.95L1209.21 1116.51C1215.16 1114.92 1220.22 1111.01 1223.26 1105.66L1425.34 750.037C1427.77 745.757 1428.76 740.81 1428.18 735.922L1385.07 378.162C1384.05 369.7 1378.43 362.495 1370.47 359.441L1130.05 267.151C1122.09 264.096 1113.1 265.693 1106.68 271.299L835.256 508.322C831.548 511.56 828.977 515.902 827.92 520.71L740.133 920.204C738.812 926.217 739.956 932.509 743.31 937.671L902.221 1182.26C907.648 1190.61 917.834 1194.53 927.456 1191.95Z" stroke="url(#paint10_linear_962_3433)" stroke-width="4"/>
<path opacity="0.173913" d="M884.376 1178.81L1167.61 1119.21C1173.64 1117.94 1178.92 1114.3 1182.24 1109.11L1400.61 768.171C1403.28 764.012 1404.53 759.105 1404.19 754.177L1379.52 398.076C1378.93 389.586 1373.71 382.115 1365.93 378.654L1132.15 274.568C1124.38 271.107 1115.33 272.221 1108.62 277.465L827.485 497.412C823.594 500.456 820.787 504.671 819.479 509.434L712.23 899.845C710.597 905.792 711.42 912.145 714.514 917.479L859.745 1167.84C864.727 1176.43 874.659 1180.85 884.376 1178.81Z" stroke="url(#paint11_linear_962_3433)" stroke-width="4"/>
<path opacity="0.188406" d="M842.258 1164.64L1126.09 1120.83C1132.2 1119.88 1137.66 1116.53 1141.27 1111.51L1374.95 785.979C1377.84 781.952 1379.35 777.099 1379.26 772.142L1372.75 418.642C1372.59 410.147 1367.76 402.43 1360.19 398.573L1133.63 283.132C1126.06 279.275 1116.98 279.905 1110.01 284.772L820.194 487.283C816.131 490.123 813.093 494.199 811.534 498.905L685.531 879.299C683.589 885.163 684.087 891.561 686.913 897.053L818.297 1152.43C822.825 1161.24 832.476 1166.15 842.258 1164.64Z" stroke="url(#paint12_linear_962_3433)" stroke-width="4"/>
<path opacity="0.202899" d="M801.147 1149.52L1084.71 1121.38C1090.87 1120.77 1096.52 1117.7 1100.39 1112.87L1348.38 803.412C1351.49 799.53 1353.26 794.744 1353.42 789.771L1364.71 439.786C1364.99 431.307 1360.57 423.366 1353.23 419.125L1134.42 292.797C1127.07 288.555 1117.99 288.702 1110.78 293.178L813.336 477.956C809.11 480.581 805.849 484.506 804.042 489.141L660.035 858.637C657.788 864.401 657.959 870.828 660.508 876.466L777.919 1136.11C781.984 1145.1 791.33 1150.49 801.147 1149.52Z" stroke="url(#paint13_linear_962_3433)" stroke-width="4"/>
<path opacity="0.217391" d="M761.087 1133.5L1043.52 1120.89C1049.71 1120.61 1055.53 1117.85 1059.66 1113.22L1320.92 820.423C1324.24 816.697 1326.26 811.991 1326.68 807.015L1355.41 461.431C1356.11 452.991 1352.11 444.849 1345.01 440.236L1134.48 303.513C1127.37 298.901 1118.31 298.564 1110.89 302.638L806.865 469.445C802.488 471.847 799.011 475.608 796.959 480.16L635.738 837.924C633.192 843.574 633.034 850.013 635.299 855.782L738.653 1118.93C742.247 1128.08 751.263 1133.94 761.087 1133.5Z" stroke="url(#paint14_linear_962_3433)" stroke-width="4"/>
<path opacity="0.231884" d="M722.115 1116.65L1002.58 1119.37C1008.79 1119.43 1014.76 1116.97 1019.13 1112.57L1292.6 836.963C1296.13 833.406 1298.41 828.793 1299.07 823.826L1344.81 483.5C1345.93 475.12 1342.37 466.799 1335.53 461.829L1133.75 315.228C1126.91 310.258 1117.9 309.442 1110.27 313.102L800.737 461.764C796.219 463.933 792.534 467.519 790.242 471.975L612.635 817.228C609.795 822.748 609.307 829.182 611.283 835.068L700.534 1100.97C703.652 1110.26 712.315 1116.56 722.115 1116.65Z" stroke="url(#paint15_linear_962_3433)" stroke-width="4"/>
<path opacity="0.246377" d="M684.268 1099.04L961.946 1116.84C968.152 1117.24 974.254 1115.11 978.862 1110.93L1263.47 852.993C1267.2 849.615 1269.71 845.109 1270.63 840.164L1332.9 505.918C1334.45 497.621 1331.33 489.143 1324.77 483.831L1132.2 327.89C1125.64 322.579 1116.69 321.287 1108.9 324.524L794.905 454.925C790.259 456.855 786.374 460.254 783.845 464.602L590.715 796.617C587.588 801.993 586.771 808.406 588.45 814.393L663.594 1082.3C666.231 1091.71 674.521 1098.42 684.268 1099.04Z" stroke="url(#paint16_linear_962_3433)" stroke-width="4"/>
<path opacity="0.26087" d="M647.571 1080.75L921.654 1113.35C927.841 1114.08 934.06 1112.28 938.892 1108.34L1233.54 868.471C1237.46 865.283 1240.21 860.895 1241.39 855.984L1319.69 528.609C1321.65 520.415 1318.97 511.805 1312.71 506.167L1129.76 341.445C1123.5 335.807 1114.66 334.044 1106.72 336.85L789.319 448.939C784.558 450.62 780.482 453.822 777.721 458.049L569.96 776.158C566.554 781.373 565.409 787.748 566.787 793.823L627.857 1063C630.011 1072.49 637.906 1079.6 647.571 1080.75Z" stroke="url(#paint17_linear_962_3433)" stroke-width="4"/>
<path opacity="0.275362" d="M612.054 1061.84L881.762 1108.91C887.91 1109.98 894.23 1108.51 899.272 1104.83L1202.86 883.358C1206.95 880.371 1209.95 876.114 1211.37 871.25L1305.16 551.5C1307.52 543.429 1305.3 534.71 1299.35 528.763L1126.42 355.837C1120.48 349.89 1111.76 347.663 1103.69 350.03L783.937 443.812C779.073 445.239 774.816 448.232 771.829 452.327L550.357 755.916C546.679 760.957 545.207 767.277 546.28 773.425L593.351 1043.13C595.018 1052.69 602.5 1060.17 612.054 1061.84Z" stroke="url(#paint18_linear_962_3433)" stroke-width="4"/>
<path opacity="0.289855" d="M577.736 1042.37L842.313 1103.55C848.404 1104.95 854.806 1103.82 860.045 1100.41L1171.46 897.612C1175.73 894.835 1178.95 890.722 1180.63 885.918L1289.32 574.507C1292.08 566.58 1290.31 557.776 1284.69 551.538L1122.13 370.999C1116.52 364.761 1107.95 362.078 1099.77 364.001L778.709 439.543C773.755 440.709 769.328 443.484 766.12 447.435L531.881 735.947C527.94 740.801 526.145 747.049 526.909 753.254L560.09 1022.78C561.271 1032.37 568.321 1040.2 577.736 1042.37Z" stroke="url(#paint19_linear_962_3433)" stroke-width="4"/>
<path opacity="0.304348" d="M544.638 1022.44L803.354 1097.3C809.37 1099.04 815.836 1098.26 821.259 1095.12L1139.39 911.203C1143.81 908.645 1147.26 904.688 1149.18 899.956L1272.17 597.56C1275.32 589.798 1274.01 580.933 1268.74 574.421L1116.87 386.878C1111.59 380.366 1103.2 377.237 1094.95 378.711L773.59 436.137C768.561 437.036 763.974 439.584 760.553 443.379L514.51 716.319C510.316 720.971 508.201 727.132 508.653 733.378L528.091 1002.01C528.786 1011.61 535.389 1019.76 544.638 1022.44Z" stroke="url(#paint20_linear_962_3433)" stroke-width="4"/>
<path opacity="0.318841" d="M512.769 1002.1L764.923 1090.21C770.846 1092.28 777.358 1091.84 782.949 1088.99L1106.68 924.094C1111.25 921.765 1114.91 917.976 1117.08 913.327L1253.72 620.583C1257.26 613.004 1256.41 604.102 1251.49 597.336L1110.59 403.408C1105.68 396.642 1097.47 393.078 1089.17 394.1L768.533 433.59C763.442 434.217 758.706 436.528 755.079 440.156L498.212 697.086C493.776 701.523 491.345 707.58 491.483 713.854L497.362 980.894C497.573 990.484 503.714 998.936 512.769 1002.1Z" stroke="url(#paint21_linear_962_3433)" stroke-width="4"/>
<path opacity="0.333333" d="M482.14 981.436L727.062 1082.31C732.875 1084.71 739.414 1084.62 745.159 1082.06L1073.38 936.262C1078.09 934.171 1081.96 930.56 1084.37 926.008L1234 643.508C1237.9 636.131 1237.51 627.216 1232.96 620.216L1103.29 420.533C1098.74 413.532 1090.76 409.544 1082.43 410.113L763.493 431.904C758.353 432.255 753.481 434.321 749.656 437.771L482.959 678.312C478.291 682.523 475.549 688.46 475.372 694.744L467.909 959.521C467.639 969.073 473.304 977.797 482.14 981.436Z" stroke="url(#paint22_linear_962_3433)" stroke-width="4"/>
<path opacity="0.347826" d="M452.754 960.512L689.806 1073.64C695.49 1076.35 702.038 1076.61 707.921 1074.37L1039.53 947.672C1044.36 945.826 1048.43 942.405 1051.08 937.962L1213.01 666.256C1217.27 659.1 1217.33 650.196 1213.17 642.981L1094.93 438.182C1090.76 430.967 1083.02 426.569 1074.69 426.684L758.421 431.066C753.249 431.137 748.252 432.95 744.237 436.212L468.713 660.046C463.825 664.017 460.779 669.819 460.286 676.098L439.73 937.954C438.985 947.444 444.163 956.412 452.754 960.512Z" stroke="url(#paint23_linear_962_3433)" stroke-width="4"/>
<path opacity="0.362319" d="M424.612 939.403L653.192 1064.23C658.729 1067.26 665.267 1067.87 671.272 1065.94L1005.18 958.304C1010.12 956.71 1014.38 953.489 1017.26 949.166L1190.77 688.762C1195.38 681.843 1195.9 672.975 1192.13 665.567L1085.5 456.296C1081.72 448.888 1074.24 444.093 1065.94 443.756L753.276 431.07C748.086 430.859 742.977 432.412 738.782 435.475L455.439 642.343C450.343 646.064 446.999 651.715 446.191 657.972L412.826 916.271C411.611 925.674 416.291 934.859 424.612 939.403Z" stroke="url(#paint24_linear_962_3433)" stroke-width="4"/>
<path opacity="0.376812" d="M397.713 918.182L617.25 1054.14C622.625 1057.47 629.133 1058.44 635.244 1056.82L970.368 968.135C975.411 966.8 979.851 963.791 982.959 959.6L1167.33 710.959C1172.27 704.294 1173.24 695.484 1169.86 687.904L1074.99 474.81C1071.61 467.23 1064.42 462.056 1056.16 461.268L748.015 431.906C742.821 431.412 737.613 432.697 733.247 435.552L443.098 625.254C437.807 628.714 434.173 634.199 433.05 640.42L387.188 894.543C385.511 903.836 389.684 913.21 397.713 918.182Z" stroke="url(#paint25_linear_962_3433)" stroke-width="4"/>
<path opacity="0.391304" d="M372.047 896.917L582.012 1043.4C587.207 1047.03 593.666 1048.35 599.867 1047.06L935.151 977.145C940.281 976.076 944.892 973.286 948.22 969.239L1142.69 732.778C1147.95 726.383 1149.37 717.655 1146.4 709.926L1063.38 493.659C1060.42 485.93 1053.52 480.391 1045.34 479.158L742.593 433.561C737.411 432.78 732.118 433.793 727.59 436.43L431.646 608.826C426.173 612.014 422.257 617.319 420.822 623.488L362.805 872.842C360.674 882.002 364.334 891.536 372.047 896.917Z" stroke="url(#paint26_linear_962_3433)" stroke-width="4"/>
<path opacity="0.405797" d="M347.601 875.679L547.501 1032.06C552.5 1035.97 558.892 1037.65 565.165 1036.68L899.573 985.319C904.775 984.52 909.547 981.96 913.09 978.068L1116.91 754.157C1122.47 748.048 1124.32 739.425 1121.77 731.568L1050.68 512.781C1048.13 504.924 1041.56 499.039 1033.47 497.366L736.967 436.018C731.813 434.952 726.448 435.686 721.77 438.097L421.037 593.104C415.396 596.012 411.207 601.121 409.462 607.223L339.66 851.238C337.084 860.242 340.225 869.909 347.601 875.679Z" stroke="url(#paint27_linear_962_3433)" stroke-width="4"/>
<path opacity="0.42029" d="M324.362 854.534L513.743 1020.17C518.53 1024.35 524.836 1026.37 531.163 1025.74L863.683 992.64C868.945 992.117 873.865 989.796 877.616 986.069L1090 775.034C1095.85 769.224 1098.14 760.728 1096.01 752.766L1036.88 532.11C1034.75 524.147 1028.52 517.935 1020.55 515.827L731.099 439.26C725.987 437.908 720.565 438.358 715.747 440.535L411.225 578.128C405.431 580.746 400.978 585.647 398.926 591.666L317.735 829.799C314.725 838.625 317.343 848.395 324.362 854.534Z" stroke="url(#paint28_linear_962_3433)" stroke-width="4"/>
<path opacity="0.434783" d="M302.311 833.552L480.76 1007.77C485.319 1012.22 491.52 1014.58 497.885 1014.28L827.531 999.102C832.837 998.858 837.896 996.784 841.847 993.233L1062.03 795.354C1068.14 789.856 1070.86 781.51 1069.15 773.465L1021.99 551.586C1020.28 543.541 1014.4 537.021 1006.58 534.487L724.949 443.27C719.895 441.633 714.43 441.796 709.483 443.731L402.161 563.941C396.228 566.262 391.523 570.94 389.168 576.861L297.006 808.595C293.575 817.222 295.668 827.066 302.311 833.552Z" stroke="url(#paint29_linear_962_3433)" stroke-width="4"/>
<path opacity="0.449275" d="M281.424 812.791L448.568 994.898C452.885 999.602 458.962 1002.3 465.347 1002.35L791.165 1004.69C796.502 1004.73 801.687 1002.91 805.83 999.545L1033.01 815.054C1039.38 809.881 1042.52 801.706 1041.23 793.602L1006 571.141C1004.71 563.036 999.209 556.229 991.553 553.278L718.477 448.02C713.497 446.101 708.004 445.973 702.94 447.659L393.793 550.573C387.735 552.589 382.789 557.033 380.136 562.84L277.447 787.684C273.607 796.092 275.174 805.982 281.424 812.791Z" stroke="url(#paint30_linear_962_3433)" stroke-width="4"/>
<path opacity="0.463768" d="M261.676 792.322L417.184 981.619C421.245 986.562 427.181 989.591 433.567 989.977L754.637 1009.41C759.99 1009.73 765.288 1008.17 769.615 1005L1003.01 834.089C1009.62 829.253 1013.16 821.27 1012.3 813.128L988.924 590.721C988.068 582.579 982.95 575.506 975.484 572.149L711.649 453.495C706.758 451.295 701.252 450.874 696.083 452.304L386.069 538.062C379.903 539.768 374.726 543.964 371.782 549.644L259.028 767.136C254.794 775.305 255.835 785.212 261.676 792.322Z" stroke="url(#paint31_linear_962_3433)" stroke-width="4"/>
<path opacity="0.478261" d="M243.035 772.199L386.621 967.972C390.412 973.141 396.189 976.493 402.558 977.221L717.994 1013.24C723.348 1013.85 728.747 1012.56 733.249 1009.6L972.075 852.404C978.897 847.914 982.826 840.144 982.399 831.989L970.778 610.26C970.351 602.105 965.631 594.788 958.378 591.035L704.428 459.663C699.641 457.187 694.137 456.47 688.876 457.638L378.933 526.433C372.675 527.822 367.28 531.76 364.05 537.298L241.715 747.007C237.1 754.918 237.619 764.813 243.035 772.199Z" stroke="url(#paint32_linear_962_3433)" stroke-width="4"/>
<path opacity="0.492754" d="M225.472 752.483L356.889 954.007C360.398 959.388 365.997 963.056 372.332 964.124L681.288 1016.2C686.628 1017.1 692.115 1016.09 696.782 1013.34L940.248 869.956C947.268 865.822 951.577 858.284 951.577 850.138L951.577 629.702C951.577 621.556 947.268 614.018 940.248 609.884L696.782 466.502C692.115 463.753 686.628 462.74 681.288 463.64L372.332 515.716C365.997 516.784 360.398 520.452 356.889 525.833L225.472 727.357C220.493 734.992 220.493 744.848 225.472 752.483Z" stroke="url(#paint33_linear_962_3433)" stroke-width="4"/>
<path opacity="0.507246" d="M208.949 733.23L327.995 939.773C331.21 945.35 336.614 949.325 342.896 950.731L644.566 1018.28C649.878 1019.47 655.44 1018.74 660.262 1016.21L907.586 886.701C914.784 882.931 919.459 875.643 919.885 867.529L931.338 648.99C931.763 640.875 927.875 633.139 921.11 628.637L688.679 473.981C684.147 470.965 678.693 469.655 673.286 470.283L366.207 505.931C359.813 506.673 354.022 510.061 350.242 515.272L210.259 708.239C204.932 715.582 204.419 725.371 208.949 733.23Z" stroke="url(#paint34_linear_962_3433)" stroke-width="4"/>
<path opacity="0.521739" d="M193.429 714.492L299.944 925.316C302.853 931.074 308.047 935.345 314.258 937.088L607.879 1019.5C613.147 1020.97 618.769 1020.53 623.737 1018.23L874.144 902.597C881.501 899.2 886.528 892.18 887.375 884.12L910.083 668.066C910.93 660.006 907.473 652.095 900.983 647.241L680.09 482.07C675.708 478.794 670.301 477.187 664.841 477.537L360.503 497.097C354.065 497.511 348.097 500.61 344.054 505.637L196.034 689.707C190.377 696.742 189.358 706.435 193.429 714.492Z" stroke="url(#paint35_linear_962_3433)" stroke-width="4"/>
<path opacity="0.536232" d="M178.868 696.32L272.737 910.684C275.33 916.606 280.296 921.163 286.418 923.24L571.272 1019.85C576.481 1021.61 582.15 1021.46 587.252 1019.4L839.977 917.61C847.474 914.591 852.836 907.857 854.101 899.874L887.836 686.876C889.101 678.893 886.082 670.832 879.885 665.644L670.984 490.739C666.767 487.208 661.424 485.305 655.924 485.375L355.158 489.231C348.694 489.314 342.563 492.113 338.267 496.944L182.75 671.809C176.781 678.521 175.265 688.093 178.868 696.32Z" stroke="url(#paint36_linear_962_3433)" stroke-width="4"/>
<path opacity="0.550725" d="M165.223 678.761L246.373 895.926C248.64 901.995 253.363 906.826 259.379 909.231L534.793 1019.35C539.928 1021.4 545.63 1021.54 550.856 1019.73L805.145 931.708C812.762 929.072 818.443 922.64 820.119 914.755L864.625 705.371C866.301 697.487 863.727 689.301 857.841 683.794L661.337 499.954C657.299 496.177 652.035 493.98 646.509 493.767L350.116 482.344C343.642 482.095 337.363 484.588 332.823 489.209L170.361 654.593C164.099 660.967 162.096 670.391 165.223 678.761Z" stroke="url(#paint37_linear_962_3433)" stroke-width="4"/>
<path opacity="0.565217" d="M152.451 661.862L220.85 881.089C222.783 887.287 227.247 892.38 233.139 895.109L498.491 1018.02C503.536 1020.35 509.256 1020.78 514.594 1019.23L769.709 944.863C777.426 942.614 783.408 936.499 785.489 928.735L840.481 723.502C842.561 715.738 840.437 707.451 834.879 701.644L651.126 509.685C647.281 505.669 642.112 503.181 636.574 502.682L345.319 476.448C338.852 475.865 332.44 478.043 327.666 482.444L158.818 638.101C152.282 644.126 149.804 653.377 152.451 661.862Z" stroke="url(#paint38_linear_962_3433)" stroke-width="4"/>
<path opacity="0.57971" d="M140.501 645.66L196.16 866.216C197.752 872.526 201.943 877.866 207.693 880.913L462.408 1015.86C467.348 1018.48 473.073 1019.21 478.511 1017.91L733.728 957.047C741.524 955.187 747.791 949.404 750.267 941.781L815.435 741.216C817.911 733.594 816.241 725.232 811.027 719.145L640.326 519.893C636.689 515.647 631.63 512.872 626.095 512.085L340.705 471.543C334.262 470.628 327.733 472.485 322.736 476.653L148.068 622.372C141.279 628.035 138.337 637.088 140.501 645.66Z" stroke="url(#paint39_linear_962_3433)" stroke-width="4"/>
<path opacity="0.594203" d="M129.325 630.196L172.297 851.355C173.541 857.758 177.445 863.331 183.036 866.688L426.591 1012.9C431.411 1015.8 437.125 1016.82 442.652 1015.79L697.267 968.24C705.123 966.773 711.653 961.333 714.517 953.873L789.524 758.473C792.388 751.013 791.174 742.601 786.318 736.254L628.921 530.544C625.505 526.079 620.571 523.02 615.052 521.945L336.219 467.634C329.817 466.387 323.187 467.917 317.978 471.842L138.059 607.442C131.038 612.733 127.648 621.565 129.325 630.196Z" stroke="url(#paint40_linear_962_3433)" stroke-width="4"/>
<path opacity="0.608696" d="M118.868 615.504L149.247 836.55C150.137 843.026 153.741 848.817 159.157 852.477L391.079 1009.16C395.765 1012.33 401.453 1013.66 407.056 1012.9L660.385 978.425C668.28 977.351 675.056 972.268 678.296 964.99L762.783 775.229C766.023 767.951 765.267 759.514 760.783 752.929L616.889 541.603C613.706 536.929 608.913 533.591 603.425 532.227L331.798 464.72C325.454 463.143 318.739 464.34 313.331 468.012L128.734 593.344C121.501 598.255 117.678 606.843 118.868 615.504Z" stroke="url(#paint41_linear_962_3433)" stroke-width="4"/>
<path opacity="0.623188" d="M109.08 601.616L127 821.843C127.531 828.373 130.822 834.366 136.047 838.319L355.917 1004.67C360.453 1008.1 366.1 1009.73 371.768 1009.24L623.149 987.588C631.061 986.907 638.063 982.191 641.668 975.115L735.253 791.444C738.859 784.367 738.559 775.931 734.459 769.129L604.217 553.032C601.28 548.16 596.643 544.549 591.2 542.897L327.387 462.794C321.118 460.89 314.334 461.751 308.739 465.159L120.039 580.108C112.615 584.631 108.376 592.952 109.08 601.616Z" stroke="url(#paint42_linear_962_3433)" stroke-width="4"/>
<path opacity="0.637681" d="M99.9053 588.559L105.537 807.276C105.706 813.84 108.673 820.02 113.69 824.256L321.142 999.434C325.514 1003.13 331.105 1005.06 336.824 1004.85L585.618 995.72C593.529 995.429 600.735 991.091 604.694 984.235L706.974 807.08C710.932 800.224 711.087 791.814 707.382 784.818L590.888 564.793C588.211 559.736 583.744 555.858 578.361 553.918L322.927 461.848C316.749 459.621 309.914 460.142 304.144 463.278L111.914 567.759C104.322 571.885 99.6828 579.92 99.9053 588.559Z" stroke="url(#paint43_linear_962_3433)" stroke-width="4"/>
<path opacity="0.652174" d="M91.2887 576.359L84.8431 792.89C84.6473 799.47 87.2796 805.817 92.074 810.327L286.794 993.497C290.987 997.441 296.508 999.67 302.265 999.742L547.859 1002.81C555.749 1002.91 563.139 998.961 567.436 992.343L677.99 822.106C682.287 815.488 682.892 807.129 679.593 799.962L576.894 576.85C574.487 571.62 570.205 567.483 564.896 565.257L318.363 461.873C312.293 459.327 305.423 459.505 299.492 462.36L104.303 556.319C96.5629 560.045 91.5443 567.773 91.2887 576.359Z" stroke="url(#paint44_linear_962_3433)" stroke-width="4"/>
<path opacity="0.666667" d="M83.1727 565.037L64.8966 778.726C64.3344 785.3 66.6222 791.799 71.1786 796.57L252.907 986.884C256.908 991.074 262.343 993.6 268.125 993.956L509.933 1008.87C517.782 1009.36 525.334 1005.8 529.957 999.434L648.344 836.489C652.966 830.127 654.017 821.844 651.131 814.529L562.223 589.165C560.097 583.776 556.016 579.387 550.794 576.877L313.638 462.853C307.692 459.994 300.805 459.827 294.727 462.393L97.1435 545.808C89.2788 549.128 83.9002 556.531 83.1727 565.037Z" stroke="url(#paint45_linear_962_3433)" stroke-width="4"/>
<path opacity="0.681159" d="M75.5015 554.608L45.6769 764.818C44.7479 771.366 46.6824 777.997 50.9865 783.018L219.517 979.624C223.311 984.05 228.646 986.871 234.44 987.514L471.905 1013.89C479.693 1014.75 487.386 1011.59 492.318 1005.5L618.082 850.198C623.013 844.108 624.505 835.926 622.039 828.488L546.87 601.696C545.035 596.162 541.168 591.531 536.049 588.739L308.7 464.768C302.894 461.602 296.006 461.089 289.794 463.359L90.3786 536.237C82.411 539.149 76.6931 546.21 75.5015 554.608Z" stroke="url(#paint46_linear_962_3433)" stroke-width="4"/>
<path opacity="0.695652" d="M68.2179 545.091L27.1608 751.207C25.8657 757.708 27.4389 764.452 31.4769 769.71L186.657 971.753C190.231 976.407 195.45 979.519 201.244 980.451L433.835 1017.88C441.545 1019.12 449.357 1016.36 454.582 1010.56L587.252 863.213C592.477 857.41 594.4 849.353 592.361 841.816L530.828 614.41C529.295 608.746 525.655 603.881 520.653 600.813L303.496 467.602C297.845 464.136 290.973 463.276 284.643 465.244L83.9483 527.621C75.9 530.122 69.8644 536.825 68.2179 545.091Z" stroke="url(#paint47_linear_962_3433)" stroke-width="4"/>
<path opacity="0.710145" d="M61.2636 536.489L9.32222 737.919C7.66291 744.353 8.86784 751.191 12.6267 756.671L154.356 963.3C157.698 968.172 162.786 971.571 168.565 972.793L395.786 1020.84C403.398 1022.45 411.307 1020.1 416.808 1014.6L555.901 875.505C561.402 870.004 563.749 862.095 562.14 854.484L514.095 627.263C512.873 621.483 509.474 616.395 504.603 613.054L297.974 471.324C292.494 467.565 285.656 466.36 279.221 468.02L77.7921 519.961C69.6849 522.052 63.3542 528.382 61.2636 536.489Z" stroke="url(#paint48_linear_962_3433)" stroke-width="4"/>
<path opacity="0.724638" d="M54.5803 528.816L-7.86645 724.993C-9.88705 731.341 -9.05626 738.252 -5.58903 743.94L122.643 954.306C125.738 959.385 130.681 963.067 136.433 964.579L357.817 1022.79C365.312 1024.76 373.296 1022.82 379.056 1017.64L524.076 887.06C529.835 881.875 532.596 874.137 531.419 866.476L496.669 640.221C495.766 634.342 492.621 629.042 487.894 625.432L292.085 475.914C286.79 471.871 280.003 470.322 273.479 471.668L71.8494 513.267C63.7054 514.947 57.1025 520.892 54.5803 528.816Z" stroke="url(#paint49_linear_962_3433)" stroke-width="4"/>
<path opacity="0.73913" d="M48.1119 522.072L-24.4322 712.458C-26.81 718.698 -26.3582 725.663 -23.1943 731.544L91.5434 944.808C94.3808 950.082 99.1635 954.041 104.875 955.844L319.987 1023.75C327.349 1026.07 335.386 1024.55 341.385 1019.69L491.828 897.861C497.828 893.003 500.99 885.459 500.247 877.775L478.553 653.245C477.977 647.284 475.099 641.782 470.53 637.91L285.782 481.34C280.688 477.023 273.968 475.132 267.37 476.161L66.0625 507.536C57.9034 508.808 51.0521 514.356 48.1119 522.072Z" stroke="url(#paint50_linear_962_3433)" stroke-width="4"/>
<path opacity="0.753623" d="M41.7994 516.257L-40.4069 700.339C-43.1367 706.452 -43.0677 713.451 -40.218 719.508L61.0803 934.84C63.6477 940.298 68.2561 944.528 73.9128 946.621L282.353 1023.73C289.565 1026.39 297.632 1025.28 303.852 1020.76L459.205 907.892C465.426 903.373 468.976 896.044 468.668 888.361L459.747 666.296C459.505 660.269 456.906 654.579 452.509 650.451L279.019 487.569C274.138 482.987 267.504 480.759 260.847 481.466L60.3706 502.764C52.2178 503.63 45.1425 508.771 41.7994 516.257Z" stroke="url(#paint51_linear_962_3433)" stroke-width="4"/>
<path opacity="0.768116" d="M35.5892 511.367L-55.8187 688.666C-58.8941 694.631 -59.2106 701.642 -56.6852 707.86L31.2778 924.445C33.5638 930.073 37.9837 934.569 43.5725 936.95L244.973 1022.75C252.018 1025.76 260.093 1025.05 266.515 1020.88L426.259 917.145C432.681 912.974 436.606 905.882 436.73 898.226L440.26 679.337C440.358 673.263 438.049 667.397 433.837 663.019L271.755 494.568C267.102 489.732 260.568 487.17 253.868 487.553L54.7188 498.944C46.5934 499.409 39.3187 504.133 35.5892 511.367Z" stroke="url(#paint52_linear_962_3433)" stroke-width="4"/>
<path opacity="0.782609" d="M29.4226 507.397L-70.703 677.462C-74.1166 683.26 -74.8202 690.262 -72.6284 696.623L2.15161 913.662C4.14522 919.448 8.3626 924.201 13.8704 926.869L207.898 1020.85C214.76 1024.18 222.822 1023.89 229.425 1020.07L393.037 925.612C399.639 921.8 403.924 914.964 404.476 907.36L420.096 692.335C420.54 686.231 418.532 680.202 414.518 675.582L263.947 502.301C259.534 497.223 253.118 494.331 246.39 494.388L49.0469 496.067C40.9698 496.136 33.5207 500.437 29.4226 507.397Z" stroke="url(#paint53_linear_962_3433)" stroke-width="4"/>
<path opacity="0.797101" d="M23.2462 504.337L-85.0917 666.749C-88.8349 672.361 -89.926 679.333 -88.0763 685.82L-26.2803 902.534C-24.5893 908.464 -20.5882 913.467 -15.1746 916.419L171.181 1018.06C177.845 1021.69 185.872 1021.8 192.635 1018.36L359.588 933.292C366.351 929.846 370.979 923.285 371.955 915.758L399.265 705.252C400.059 699.137 398.363 692.959 394.56 688.106L255.557 510.73C251.396 505.421 245.114 502.205 238.374 501.935L43.3008 494.119C35.2921 493.798 27.694 497.669 23.2462 504.337Z" stroke="url(#paint54_linear_962_3433)" stroke-width="4"/>
<path opacity="0.811594" d="M17.0075 502.174L-99.0178 656.549C-103.081 661.955 -104.559 668.875 -103.059 675.469L-54.0027 891.103C-52.6243 897.162 -48.8527 902.406 -43.5467 905.64L134.872 1014.39C141.324 1018.33 149.296 1018.84 156.198 1015.77L325.964 940.182C332.866 937.109 337.819 930.841 339.214 923.415L377.779 718.053C378.926 711.946 377.553 705.635 373.973 700.556L246.551 519.813C242.654 514.286 236.522 510.754 229.786 510.156L37.427 493.082C29.5066 492.379 21.7849 495.817 17.0075 502.174Z" stroke="url(#paint55_linear_962_3433)" stroke-width="4"/>
<path opacity="0.826087" d="M12.6546 500.89L-110.516 646.876C-114.888 652.058 -116.751 658.906 -115.607 665.589L-79.0039 879.409C-77.9471 885.583 -74.4183 891.058 -69.2328 894.571L101.02 1009.9C107.246 1014.11 115.141 1015.02 122.161 1012.33L294.212 946.283C301.233 943.588 306.493 937.631 308.297 930.331L357.651 730.705C359.154 724.625 358.113 718.195 354.767 712.9L238.895 529.508C235.273 523.776 229.307 519.934 222.59 519.009L33.373 492.937C25.5601 491.86 17.7404 494.862 12.6546 500.89Z" stroke="url(#paint56_linear_962_3433)" stroke-width="4"/>
<path opacity="0.84058" d="M4.13499 500.465L-125.623 637.746C-130.293 642.687 -132.538 649.44 -131.756 656.192L-107.276 867.495C-106.55 873.767 -103.277 879.465 -98.2244 883.252L63.6662 1004.6C69.6542 1009.09 77.4516 1010.39 84.5688 1008.07L258.379 951.6C265.496 949.288 271.044 943.657 273.25 936.506L332.893 743.173C334.754 737.14 334.053 730.606 330.955 725.105L226.558 539.769C223.222 533.846 217.436 529.703 210.755 528.451L25.0862 493.658C17.3993 492.217 9.50716 494.782 4.13499 500.465Z" stroke="url(#paint57_linear_962_3433)" stroke-width="4"/>
<path opacity="0.855072" d="M-2.59891 500.882L-138.375 629.176C-143.329 633.857 -145.951 640.494 -145.535 647.297L-132.812 855.407C-132.424 861.762 -129.419 867.671 -124.513 871.728L28.8552 998.556C34.5932 1003.3 42.2733 1004.98 49.4654 1003.05L224.513 956.144C231.705 954.217 237.519 948.927 240.116 941.949L309.522 755.429C311.743 749.462 311.39 742.842 308.55 737.145L215.513 550.555C212.472 544.455 206.882 540.019 200.251 538.442L18.5187 495.223C10.9757 493.43 3.0366 495.557 -2.59891 500.882Z" stroke="url(#paint58_linear_962_3433)" stroke-width="4"/>
<path opacity="0.869565" d="M-9.59401 502.11L-150.806 621.172C-156.03 625.577 -159.025 632.077 -158.979 638.911L-157.607 843.184C-157.564 849.604 -154.839 855.715 -150.092 860.037L-5.37377 991.791C0.10338 996.777 7.64683 998.821 14.892 997.281L190.659 959.921C197.904 958.381 203.964 953.445 206.94 946.662L285.557 767.437C288.136 761.557 288.14 754.867 285.568 748.984L203.736 561.813C200.999 555.552 195.619 550.832 189.054 548.933L11.6239 497.6C4.24195 495.464 -3.71893 497.156 -9.59401 502.11Z" stroke="url(#paint59_linear_962_3433)" stroke-width="4"/>
<path opacity="0.884058" d="M-16.8947 504.125L-162.952 613.746C-168.432 617.859 -171.793 624.201 -172.12 631.045L-181.659 830.872C-181.967 837.341 -179.535 843.641 -174.958 848.223L-38.9834 984.355C-33.7771 989.568 -26.3889 991.97 -19.1125 990.818L156.863 962.946C164.14 961.794 170.424 957.225 173.764 950.659L261.017 779.171C263.953 773.399 264.321 766.656 262.028 760.599L191.206 573.5C188.781 567.092 183.624 562.099 177.142 559.881L4.35768 500.759C-2.84687 498.294 -10.8045 499.554 -16.8947 504.125Z" stroke="url(#paint60_linear_962_3433)" stroke-width="4"/>
<path opacity="0.898551" d="M-24.5463 506.901L-174.854 606.907C-180.573 610.713 -184.292 616.876 -184.993 623.71L-204.97 818.516C-205.636 825.016 -203.507 831.493 -199.113 836.329L-71.9426 976.296C-67.0162 981.718 -59.8013 984.469 -52.5155 983.703L123.166 965.238C130.452 964.473 136.937 960.282 140.629 953.954L235.919 790.606C239.212 784.962 239.948 778.184 237.945 771.964L177.902 585.568C175.795 579.029 170.876 573.774 164.49 571.241L-3.32476 504.67C-10.3364 501.889 -18.2662 502.722 -24.5463 506.901Z" stroke="url(#paint61_linear_962_3433)" stroke-width="4"/>
<path opacity="0.913043" d="M-32.5856 510.398L-186.541 600.653C-192.484 604.137 -196.552 610.1 -197.627 616.904L-227.54 806.154C-228.57 812.667 -226.754 819.308 -222.555 824.392L-104.217 967.655C-99.5785 973.27 -92.5542 976.357 -85.2806 975.976L89.6131 966.81C96.8867 966.429 103.55 962.625 107.576 956.555L210.29 801.707C213.935 796.213 215.047 789.418 213.342 783.048L163.811 597.962C162.03 591.308 157.361 585.802 151.087 582.959L-11.4593 509.291C-18.2634 506.207 -26.1412 506.62 -32.5856 510.398Z" stroke="url(#paint62_linear_962_3433)" stroke-width="4"/>
<path opacity="0.927536" d="M-41.0533 514.589L-198.054 594.992C-204.201 598.14 -208.609 603.884 -210.058 610.637L-249.377 793.831C-250.774 800.339 -249.283 807.132 -245.29 812.457L-135.782 958.485C-131.438 964.277 -124.621 967.686 -117.381 967.686L56.2421 967.686C63.482 967.686 70.2993 964.277 74.6429 958.485L184.151 812.457C188.144 807.132 189.635 800.339 188.238 793.831L148.919 610.637C147.47 603.884 143.063 598.14 136.915 594.992L-20.0855 514.589C-26.6683 511.218 -34.4705 511.218 -41.0533 514.589Z" stroke="url(#paint63_linear_962_3433)" stroke-width="4"/>
<path opacity="0.942029" d="M-49.9844 519.434L-209.427 589.921C-215.761 592.721 -220.496 598.226 -222.317 604.907L-270.488 781.588C-272.256 788.071 -271.1 795.003 -267.324 800.561L-166.612 948.834C-162.569 954.786 -155.974 958.503 -148.789 958.88L23.092 967.888C30.2769 968.264 37.2241 965.257 41.8667 959.76L157.526 822.827C161.862 817.693 163.736 810.921 162.656 804.288L133.218 623.54C132.104 616.705 127.971 610.735 121.964 607.289L-29.2372 520.522C-35.5859 516.879 -43.2896 516.475 -49.9844 519.434Z" stroke="url(#paint64_linear_962_3433)" stroke-width="4"/>
<path opacity="0.956522" d="M-59.4127 524.897L-220.696 585.439C-227.197 587.879 -232.247 593.125 -234.438 599.714L-290.884 769.466C-293.025 775.905 -292.214 782.961 -288.667 788.746L-196.687 938.753C-192.95 944.847 -186.592 948.857 -179.483 949.604L-9.80145 967.439C-2.69233 968.186 4.36012 965.585 9.28207 960.401L130.44 832.796C135.113 827.875 137.374 821.141 136.618 814.398L116.699 636.62C115.926 629.72 112.077 623.538 106.225 619.799L-38.9465 527.048C-45.0494 523.148 -52.6324 522.351 -59.4127 524.897Z" stroke="url(#paint65_linear_962_3433)" stroke-width="4"/>
<path opacity="0.971014" d="M-69.367 530.937L-231.894 581.541C-238.542 583.611 -243.894 588.58 -246.45 595.056L-310.576 757.504C-313.093 763.88 -312.635 771.046 -309.327 777.049L-225.987 928.293C-222.561 934.512 -216.454 938.799 -209.441 939.91L-42.4021 966.367C-35.3892 967.477 -28.2565 965.287 -23.0758 960.431L102.922 842.343C107.923 837.655 110.573 830.982 110.149 824.14L99.3616 649.827C98.9316 642.878 95.377 636.498 89.6944 632.476L-49.2406 534.124C-55.087 529.986 -62.5278 528.807 -69.367 530.937Z" stroke="url(#paint66_linear_962_3433)" stroke-width="4"/>
<path opacity="0.985507" d="M-79.876 537.513L-243.056 578.222C-249.83 579.911 -255.469 584.586 -258.386 590.928L-329.579 745.742C-332.472 752.034 -332.377 759.295 -329.318 765.509L-254.5 917.507C-251.387 923.833 -245.543 928.381 -238.647 929.847L-74.6786 964.7C-67.782 966.166 -60.594 964.387 -55.1764 959.875L74.9962 851.449C80.3176 847.016 83.3584 840.422 83.2743 833.497L81.2045 663.11C81.1197 656.13 77.8693 649.566 72.3688 645.267L-60.1462 541.707C-65.7264 537.346 -73.0045 535.799 -79.876 537.513Z" stroke="url(#paint67_linear_962_3433)" stroke-width="4"/>
<path d="M-90.9652 544.585L-254.216 575.474C-261.094 576.775 -267.004 581.138 -270.275 587.326L-347.91 734.22C-351.181 740.408 -351.456 747.749 -348.657 754.164L-282.216 906.449C-279.417 912.864 -273.848 917.656 -267.087 919.468L-106.601 962.47C-99.8404 964.281 -92.6224 962.916 -86.9906 958.759L46.6913 860.097C52.323 855.941 55.7556 849.446 56.0174 842.452L62.2298 676.42C62.4915 669.426 59.5539 662.693 54.2485 658.127L-71.6866 549.751C-76.992 545.185 -84.0877 543.284 -90.9652 544.585Z" stroke="url(#paint68_linear_962_3433)" stroke-width="4"/>
<defs>
<linearGradient id="paint0_linear_962_3433" x1="1386.69" y1="1269.93" x2="1208.72" y2="146.267" gradientUnits="userSpaceOnUse">
<stop stop-color="white"/>
<stop offset="1" stop-color="#F5DF21"/>
</linearGradient>
<linearGradient id="paint1_linear_962_3433" x1="1336.59" y1="1269.22" x2="1218.73" y2="147.763" gradientUnits="userSpaceOnUse">
<stop stop-color="white"/>
<stop offset="1" stop-color="#F5DF21"/>
</linearGradient>
<linearGradient id="paint2_linear_962_3433" x1="1286.84" y1="1266.96" x2="1228.35" y2="150.906" gradientUnits="userSpaceOnUse">
<stop stop-color="white"/>
<stop offset="1" stop-color="#F5DF21"/>
</linearGradient>
<linearGradient id="paint3_linear_962_3433" x1="1237.52" y1="1263.21" x2="1237.52" y2="155.665" gradientUnits="userSpaceOnUse">
<stop stop-color="white"/>
<stop offset="1" stop-color="#F5DF21"/>
</linearGradient>
<linearGradient id="paint4_linear_962_3433" x1="1188.7" y1="1258" x2="1246.14" y2="161.995" gradientUnits="userSpaceOnUse">
<stop stop-color="white"/>
<stop offset="1" stop-color="#F5DF21"/>
</linearGradient>
<linearGradient id="paint5_linear_962_3433" x1="1140.47" y1="1251.36" x2="1254.14" y2="169.852" gradientUnits="userSpaceOnUse">
<stop stop-color="white"/>
<stop offset="1" stop-color="#F5DF21"/>
</linearGradient>
<linearGradient id="paint6_linear_962_3433" x1="1092.89" y1="1243.35" x2="1261.44" y2="179.188" gradientUnits="userSpaceOnUse">
<stop stop-color="white"/>
<stop offset="1" stop-color="#F5DF21"/>
</linearGradient>
<linearGradient id="paint7_linear_962_3433" x1="1046.03" y1="1234.01" x2="1267.95" y2="189.952" gradientUnits="userSpaceOnUse">
<stop stop-color="white"/>
<stop offset="1" stop-color="#F5DF21"/>
</linearGradient>
<linearGradient id="paint8_linear_962_3433" x1="999.963" y1="1223.4" x2="1273.62" y2="202.084" gradientUnits="userSpaceOnUse">
<stop stop-color="white"/>
<stop offset="1" stop-color="#F5DF21"/>
</linearGradient>
<linearGradient id="paint9_linear_962_3433" x1="954.744" y1="1211.57" x2="1278.38" y2="215.525" gradientUnits="userSpaceOnUse">
<stop stop-color="white"/>
<stop offset="1" stop-color="#F5DF21"/>
</linearGradient>
<linearGradient id="paint10_linear_962_3433" x1="910.435" y1="1198.58" x2="1282.16" y2="230.212" gradientUnits="userSpaceOnUse">
<stop stop-color="white"/>
<stop offset="1" stop-color="#F5DF21"/>
</linearGradient>
<linearGradient id="paint11_linear_962_3433" x1="867.089" y1="1184.49" x2="1284.9" y2="246.079" gradientUnits="userSpaceOnUse">
<stop stop-color="white"/>
<stop offset="1" stop-color="#F5DF21"/>
</linearGradient>
<linearGradient id="paint12_linear_962_3433" x1="824.759" y1="1169.37" x2="1286.55" y2="263.058" gradientUnits="userSpaceOnUse">
<stop stop-color="white"/>
<stop offset="1" stop-color="#F5DF21"/>
</linearGradient>
<linearGradient id="paint13_linear_962_3433" x1="783.49" y1="1153.28" x2="1287.06" y2="281.077" gradientUnits="userSpaceOnUse">
<stop stop-color="white"/>
<stop offset="1" stop-color="#F5DF21"/>
</linearGradient>
<linearGradient id="paint14_linear_962_3433" x1="743.324" y1="1136.3" x2="1286.38" y2="300.062" gradientUnits="userSpaceOnUse">
<stop stop-color="white"/>
<stop offset="1" stop-color="#F5DF21"/>
</linearGradient>
<linearGradient id="paint15_linear_962_3433" x1="704.3" y1="1118.48" x2="1284.48" y2="319.936" gradientUnits="userSpaceOnUse">
<stop stop-color="white"/>
<stop offset="1" stop-color="#F5DF21"/>
</linearGradient>
<linearGradient id="paint16_linear_962_3433" x1="666.454" y1="1099.91" x2="1281.31" y2="340.625" gradientUnits="userSpaceOnUse">
<stop stop-color="white"/>
<stop offset="1" stop-color="#F5DF21"/>
</linearGradient>
<linearGradient id="paint17_linear_962_3433" x1="629.811" y1="1080.65" x2="1276.84" y2="362.051" gradientUnits="userSpaceOnUse">
<stop stop-color="white"/>
<stop offset="1" stop-color="#F5DF21"/>
</linearGradient>
<linearGradient id="paint18_linear_962_3433" x1="594.401" y1="1060.79" x2="1271.05" y2="384.135" gradientUnits="userSpaceOnUse">
<stop stop-color="white"/>
<stop offset="1" stop-color="#F5DF21"/>
</linearGradient>
<linearGradient id="paint19_linear_962_3433" x1="560.242" y1="1040.38" x2="1263.92" y2="406.791" gradientUnits="userSpaceOnUse">
<stop stop-color="white"/>
<stop offset="1" stop-color="#F5DF21"/>
</linearGradient>
<linearGradient id="paint20_linear_962_3433" x1="527.353" y1="1019.52" x2="1255.42" y2="429.943" gradientUnits="userSpaceOnUse">
<stop stop-color="white"/>
<stop offset="1" stop-color="#F5DF21"/>
</linearGradient>
<linearGradient id="paint21_linear_962_3433" x1="495.744" y1="998.27" x2="1245.55" y2="453.507" gradientUnits="userSpaceOnUse">
<stop stop-color="white"/>
<stop offset="1" stop-color="#F5DF21"/>
</linearGradient>
<linearGradient id="paint22_linear_962_3433" x1="465.423" y1="976.714" x2="1234.29" y2="477.408" gradientUnits="userSpaceOnUse">
<stop stop-color="white"/>
<stop offset="1" stop-color="#F5DF21"/>
</linearGradient>
<linearGradient id="paint23_linear_962_3433" x1="436.392" y1="954.92" x2="1221.64" y2="501.558" gradientUnits="userSpaceOnUse">
<stop stop-color="white"/>
<stop offset="1" stop-color="#F5DF21"/>
</linearGradient>
<linearGradient id="paint24_linear_962_3433" x1="408.653" y1="932.966" x2="1207.6" y2="525.881" gradientUnits="userSpaceOnUse">
<stop stop-color="white"/>
<stop offset="1" stop-color="#F5DF21"/>
</linearGradient>
<linearGradient id="paint25_linear_962_3433" x1="382.199" y1="910.927" x2="1192.19" y2="550.298" gradientUnits="userSpaceOnUse">
<stop stop-color="white"/>
<stop offset="1" stop-color="#F5DF21"/>
</linearGradient>
<linearGradient id="paint26_linear_962_3433" x1="357.022" y1="888.873" x2="1175.4" y2="574.728" gradientUnits="userSpaceOnUse">
<stop stop-color="white"/>
<stop offset="1" stop-color="#F5DF21"/>
</linearGradient>
<linearGradient id="paint27_linear_962_3433" x1="333.106" y1="866.879" x2="1157.25" y2="599.097" gradientUnits="userSpaceOnUse">
<stop stop-color="white"/>
<stop offset="1" stop-color="#F5DF21"/>
</linearGradient>
<linearGradient id="paint28_linear_962_3433" x1="310.435" y1="845.01" x2="1137.77" y2="623.328" gradientUnits="userSpaceOnUse">
<stop stop-color="white"/>
<stop offset="1" stop-color="#F5DF21"/>
</linearGradient>
<linearGradient id="paint29_linear_962_3433" x1="288.989" y1="823.341" x2="1116.97" y2="647.349" gradientUnits="userSpaceOnUse">
<stop stop-color="white"/>
<stop offset="1" stop-color="#F5DF21"/>
</linearGradient>
<linearGradient id="paint30_linear_962_3433" x1="268.741" y1="801.932" x2="1094.88" y2="671.084" gradientUnits="userSpaceOnUse">
<stop stop-color="white"/>
<stop offset="1" stop-color="#F5DF21"/>
</linearGradient>
<linearGradient id="paint31_linear_962_3433" x1="249.665" y1="780.852" x2="1071.53" y2="694.471" gradientUnits="userSpaceOnUse">
<stop stop-color="white"/>
<stop offset="1" stop-color="#F5DF21"/>
</linearGradient>
<linearGradient id="paint32_linear_962_3433" x1="231.726" y1="760.161" x2="1046.96" y2="717.436" gradientUnits="userSpaceOnUse">
<stop stop-color="white"/>
<stop offset="1" stop-color="#F5DF21"/>
</linearGradient>
<linearGradient id="paint33_linear_962_3433" x1="214.892" y1="739.92" x2="1021.2" y2="739.92" gradientUnits="userSpaceOnUse">
<stop stop-color="white"/>
<stop offset="1" stop-color="#F5DF21"/>
</linearGradient>
<linearGradient id="paint34_linear_962_3433" x1="199.122" y1="720.186" x2="994.3" y2="761.859" gradientUnits="userSpaceOnUse">
<stop stop-color="white"/>
<stop offset="1" stop-color="#F5DF21"/>
</linearGradient>
<linearGradient id="paint35_linear_962_3433" x1="184.377" y1="701.011" x2="966.298" y2="783.195" gradientUnits="userSpaceOnUse">
<stop stop-color="white"/>
<stop offset="1" stop-color="#F5DF21"/>
</linearGradient>
<linearGradient id="paint36_linear_962_3433" x1="170.611" y1="682.449" x2="937.242" y2="803.872" gradientUnits="userSpaceOnUse">
<stop stop-color="white"/>
<stop offset="1" stop-color="#F5DF21"/>
</linearGradient>
<linearGradient id="paint37_linear_962_3433" x1="157.777" y1="664.548" x2="907.181" y2="823.839" gradientUnits="userSpaceOnUse">
<stop stop-color="white"/>
<stop offset="1" stop-color="#F5DF21"/>
</linearGradient>
<linearGradient id="paint38_linear_962_3433" x1="145.83" y1="647.355" x2="876.171" y2="843.049" gradientUnits="userSpaceOnUse">
<stop stop-color="white"/>
<stop offset="1" stop-color="#F5DF21"/>
</linearGradient>
<linearGradient id="paint39_linear_962_3433" x1="134.715" y1="630.907" x2="844.263" y2="861.453" gradientUnits="userSpaceOnUse">
<stop stop-color="white"/>
<stop offset="1" stop-color="#F5DF21"/>
</linearGradient>
<linearGradient id="paint40_linear_962_3433" x1="124.382" y1="615.245" x2="811.518" y2="879.012" gradientUnits="userSpaceOnUse">
<stop stop-color="white"/>
<stop offset="1" stop-color="#F5DF21"/>
</linearGradient>
<linearGradient id="paint41_linear_962_3433" x1="114.774" y1="600.405" x2="777.991" y2="895.688" gradientUnits="userSpaceOnUse">
<stop stop-color="white"/>
<stop offset="1" stop-color="#F5DF21"/>
</linearGradient>
<linearGradient id="paint42_linear_962_3433" x1="105.837" y1="586.418" x2="743.744" y2="911.448" gradientUnits="userSpaceOnUse">
<stop stop-color="white"/>
<stop offset="1" stop-color="#F5DF21"/>
</linearGradient>
<linearGradient id="paint43_linear_962_3433" x1="97.512" y1="573.31" x2="708.838" y2="926.26" gradientUnits="userSpaceOnUse">
<stop stop-color="white"/>
<stop offset="1" stop-color="#F5DF21"/>
</linearGradient>
<linearGradient id="paint44_linear_962_3433" x1="89.7417" y1="561.109" x2="673.337" y2="940.1" gradientUnits="userSpaceOnUse">
<stop stop-color="white"/>
<stop offset="1" stop-color="#F5DF21"/>
</linearGradient>
<linearGradient id="paint45_linear_962_3433" x1="82.4657" y1="549.834" x2="637.303" y2="952.946" gradientUnits="userSpaceOnUse">
<stop stop-color="white"/>
<stop offset="1" stop-color="#F5DF21"/>
</linearGradient>
<linearGradient id="paint46_linear_962_3433" x1="75.6251" y1="539.499" x2="600.801" y2="964.778" gradientUnits="userSpaceOnUse">
<stop stop-color="white"/>
<stop offset="1" stop-color="#F5DF21"/>
</linearGradient>
<linearGradient id="paint47_linear_962_3433" x1="69.1603" y1="530.123" x2="563.897" y2="975.585" gradientUnits="userSpaceOnUse">
<stop stop-color="white"/>
<stop offset="1" stop-color="#F5DF21"/>
</linearGradient>
<linearGradient id="paint48_linear_962_3433" x1="63.01" y1="521.707" x2="526.654" y2="985.352" gradientUnits="userSpaceOnUse">
<stop stop-color="white"/>
<stop offset="1" stop-color="#F5DF21"/>
</linearGradient>
<linearGradient id="paint49_linear_962_3433" x1="57.1133" y1="514.265" x2="489.138" y2="994.077" gradientUnits="userSpaceOnUse">
<stop stop-color="white"/>
<stop offset="1" stop-color="#F5DF21"/>
</linearGradient>
<linearGradient id="paint50_linear_962_3433" x1="51.4116" y1="507.796" x2="451.414" y2="1001.76" gradientUnits="userSpaceOnUse">
<stop stop-color="white"/>
<stop offset="1" stop-color="#F5DF21"/>
</linearGradient>
<linearGradient id="paint51_linear_962_3433" x1="45.8435" y1="502.296" x2="413.543" y2="1008.39" gradientUnits="userSpaceOnUse">
<stop stop-color="white"/>
<stop offset="1" stop-color="#F5DF21"/>
</linearGradient>
<linearGradient id="paint52_linear_962_3433" x1="40.3529" y1="497.763" x2="375.593" y2="1013.99" gradientUnits="userSpaceOnUse">
<stop stop-color="white"/>
<stop offset="1" stop-color="#F5DF21"/>
</linearGradient>
<linearGradient id="paint53_linear_962_3433" x1="34.8789" y1="494.188" x2="337.622" y2="1018.55" gradientUnits="userSpaceOnUse">
<stop stop-color="white"/>
<stop offset="1" stop-color="#F5DF21"/>
</linearGradient>
<linearGradient id="paint54_linear_962_3433" x1="29.3659" y1="491.559" x2="299.692" y2="1022.1" gradientUnits="userSpaceOnUse">
<stop stop-color="white"/>
<stop offset="1" stop-color="#F5DF21"/>
</linearGradient>
<linearGradient id="paint55_linear_962_3433" x1="23.7593" y1="489.861" x2="261.864" y2="1024.65" gradientUnits="userSpaceOnUse">
<stop stop-color="white"/>
<stop offset="1" stop-color="#F5DF21"/>
</linearGradient>
<linearGradient id="paint56_linear_962_3433" x1="20.0053" y1="489.076" x2="226.197" y2="1026.22" gradientUnits="userSpaceOnUse">
<stop stop-color="white"/>
<stop offset="1" stop-color="#F5DF21"/>
</linearGradient>
<linearGradient id="paint57_linear_962_3433" x1="12.0498" y1="489.18" x2="186.744" y2="1026.83" gradientUnits="userSpaceOnUse">
<stop stop-color="white"/>
<stop offset="1" stop-color="#F5DF21"/>
</linearGradient>
<linearGradient id="paint58_linear_962_3433" x1="5.84328" y1="490.153" x2="149.56" y2="1026.51" gradientUnits="userSpaceOnUse">
<stop stop-color="white"/>
<stop offset="1" stop-color="#F5DF21"/>
</linearGradient>
<linearGradient id="paint59_linear_962_3433" x1="-0.662476" y1="491.963" x2="112.699" y2="1025.29" gradientUnits="userSpaceOnUse">
<stop stop-color="white"/>
<stop offset="1" stop-color="#F5DF21"/>
</linearGradient>
<linearGradient id="paint60_linear_962_3433" x1="-7.5132" y1="494.584" x2="76.2101" y2="1023.19" gradientUnits="userSpaceOnUse">
<stop stop-color="white"/>
<stop offset="1" stop-color="#F5DF21"/>
</linearGradient>
<linearGradient id="paint61_linear_962_3433" x1="-14.7555" y1="497.984" x2="40.1383" y2="1020.26" gradientUnits="userSpaceOnUse">
<stop stop-color="white"/>
<stop offset="1" stop-color="#F5DF21"/>
</linearGradient>
<linearGradient id="paint62_linear_962_3433" x1="-22.4271" y1="502.125" x2="4.53197" y2="1016.53" gradientUnits="userSpaceOnUse">
<stop stop-color="white"/>
<stop offset="1" stop-color="#F5DF21"/>
</linearGradient>
<linearGradient id="paint63_linear_962_3433" x1="-30.5694" y1="506.973" x2="-30.5694" y2="1012.05" gradientUnits="userSpaceOnUse">
<stop stop-color="white"/>
<stop offset="1" stop-color="#F5DF21"/>
</linearGradient>
<linearGradient id="paint64_linear_962_3433" x1="-39.2183" y1="512.488" x2="-65.1263" y2="1006.84" gradientUnits="userSpaceOnUse">
<stop stop-color="white"/>
<stop offset="1" stop-color="#F5DF21"/>
</linearGradient>
<linearGradient id="paint65_linear_962_3433" x1="-48.4078" y1="518.629" x2="-99.1033" y2="1000.96" gradientUnits="userSpaceOnUse">
<stop stop-color="white"/>
<stop offset="1" stop-color="#F5DF21"/>
</linearGradient>
<linearGradient id="paint66_linear_962_3433" x1="-58.1673" y1="525.355" x2="-132.466" y2="994.458" gradientUnits="userSpaceOnUse">
<stop stop-color="white"/>
<stop offset="1" stop-color="#F5DF21"/>
</linearGradient>
<linearGradient id="paint67_linear_962_3433" x1="-68.5254" y1="532.62" x2="-165.185" y2="987.37" gradientUnits="userSpaceOnUse">
<stop stop-color="white"/>
<stop offset="1" stop-color="#F5DF21"/>
</linearGradient>
<linearGradient id="paint68_linear_962_3433" x1="-79.5075" y1="540.382" x2="-197.236" y2="979.751" gradientUnits="userSpaceOnUse">
<stop stop-color="white"/>
<stop offset="1" stop-color="#F5DF21"/>
</linearGradient>
</defs>
</svg>
