<svg width="25" height="19" viewBox="0 0 25 19" fill="none" xmlns="http://www.w3.org/2000/svg">
<path d="M24.8425 8.63567C24.0425 7.24817 19.6425 0.285673 12.1675 0.510673C5.25497 0.685673 1.25497 6.76067 0.167468 8.63567C0.0577579 8.8257 0 9.04125 0 9.26067C0 9.48009 0.0577579 9.69565 0.167468 9.88567C0.954968 11.2482 5.16747 18.0107 12.53 18.0107H12.8425C19.755 17.8357 23.7675 11.7607 24.8425 9.88567C24.9522 9.69565 25.0099 9.48009 25.0099 9.26067C25.0099 9.04125 24.9522 8.8257 24.8425 8.63567ZM12.78 15.5107C7.39247 15.6357 3.87997 11.0232 2.77997 9.26067C4.02997 7.24817 7.29247 3.13567 12.2925 3.01067C17.655 2.87317 21.18 7.49817 22.2925 9.26067C21.005 11.2732 17.78 15.3857 12.78 15.5107Z" fill="#9E9D9D"/>
<path d="M12.5049 4.88516C11.6396 4.88516 10.7937 5.14175 10.0743 5.62248C9.3548 6.10321 8.79405 6.7865 8.46291 7.58592C8.13178 8.38535 8.04514 9.26502 8.21395 10.1137C8.38276 10.9624 8.79944 11.7419 9.41129 12.3538C10.0231 12.9656 10.8027 13.3823 11.6514 13.5511C12.5 13.7199 13.3797 13.6333 14.1791 13.3021C14.9786 12.971 15.6618 12.4102 16.1426 11.6908C16.6233 10.9713 16.8799 10.1255 16.8799 9.26016C16.8799 8.09984 16.4189 6.98704 15.5985 6.16657C14.778 5.3461 13.6652 4.88516 12.5049 4.88516ZM12.5049 11.1352C12.134 11.1352 11.7715 11.0252 11.4632 10.8192C11.1548 10.6131 10.9145 10.3203 10.7726 9.97769C10.6307 9.63508 10.5936 9.25808 10.6659 8.89437C10.7383 8.53065 10.9168 8.19656 11.1791 7.93434C11.4413 7.67211 11.7754 7.49354 12.1391 7.42119C12.5028 7.34884 12.8798 7.38597 13.2224 7.52789C13.565 7.6698 13.8579 7.91013 14.0639 8.21847C14.2699 8.52681 14.3799 8.88932 14.3799 9.26016C14.3799 9.75744 14.1823 10.2344 13.8307 10.586C13.4791 10.9376 13.0022 11.1352 12.5049 11.1352Z" fill="#9E9D9D"/>
</svg>
