<svg width="25" height="18" viewBox="0 0 25 18" fill="none" xmlns="http://www.w3.org/2000/svg">
<path d="M24.8425 8.13033C24.0425 6.74283 19.6425 -0.219667 12.1675 0.0053326C5.25497 0.180333 1.25497 6.25533 0.167468 8.13033C0.0577579 8.32036 0 8.53591 0 8.75533C0 8.97475 0.0577579 9.19031 0.167468 9.38033C0.954968 10.7428 5.16747 17.5053 12.53 17.5053H12.8425C19.755 17.3303 23.7675 11.2553 24.8425 9.38033C24.9522 9.19031 25.0099 8.97475 25.0099 8.75533C25.0099 8.53591 24.9522 8.32036 24.8425 8.13033ZM12.78 15.0053C7.39247 15.1303 3.87997 10.5178 2.77997 8.75533C4.02997 6.74283 7.29247 2.63033 12.2925 2.50533C17.655 2.36783 21.18 6.99283 22.2925 8.75533C21.005 10.7678 17.78 14.8803 12.78 15.0053Z" fill="#D8D8D8"/>
<path d="M12.5049 4.37982C11.6396 4.37982 10.7937 4.63641 10.0743 5.11714C9.3548 5.59787 8.79405 6.28116 8.46291 7.08058C8.13178 7.88001 8.04514 8.75968 8.21395 9.60834C8.38276 10.457 8.79944 11.2366 9.41129 11.8484C10.0231 12.4603 10.8027 12.8769 11.6514 13.0458C12.5 13.2146 13.3797 13.1279 14.1791 12.7968C14.9786 12.4657 15.6618 11.9049 16.1426 11.1854C16.6233 10.466 16.8799 9.62012 16.8799 8.75482C16.8799 7.5945 16.4189 6.4817 15.5985 5.66123C14.778 4.84076 13.6652 4.37982 12.5049 4.37982ZM12.5049 10.6298C12.134 10.6298 11.7715 10.5199 11.4632 10.3138C11.1548 10.1078 10.9145 9.81497 10.7726 9.47235C10.6307 9.12974 10.5936 8.75274 10.6659 8.38903C10.7383 8.02531 10.9168 7.69122 11.1791 7.429C11.4413 7.16677 11.7754 6.9882 12.1391 6.91585C12.5028 6.8435 12.8798 6.88063 13.2224 7.02255C13.565 7.16446 13.8579 7.40479 14.0639 7.71313C14.2699 8.02147 14.3799 8.38398 14.3799 8.75482C14.3799 9.2521 14.1823 9.72902 13.8307 10.0806C13.4791 10.4323 13.0022 10.6298 12.5049 10.6298Z" fill="#D8D8D8"/>
</svg>
