<svg width="25" height="18" viewBox="0 0 25 18" fill="none" xmlns="http://www.w3.org/2000/svg">
<path d="M24.8425 8.14104C24.0425 6.75354 19.6425 -0.208956 12.1675 0.0160443C5.25497 0.191044 1.25497 6.26604 0.167468 8.14104C0.0577579 8.33107 0 8.54662 0 8.76604C0 8.98547 0.0577579 9.20102 0.167468 9.39104C0.954968 10.7535 5.16747 17.516 12.53 17.516H12.8425C19.755 17.341 23.7675 11.266 24.8425 9.39104C24.9522 9.20102 25.0099 8.98547 25.0099 8.76604C25.0099 8.54662 24.9522 8.33107 24.8425 8.14104ZM12.78 15.016C7.39247 15.141 3.87997 10.5285 2.77997 8.76604C4.02997 6.75354 7.29247 2.64104 12.2925 2.51604C17.655 2.37854 21.18 7.00354 22.2925 8.76604C21.005 10.7785 17.78 14.891 12.78 15.016Z" fill="white"/>
<path d="M12.5049 4.39053C11.6396 4.39053 10.7937 4.64712 10.0743 5.12785C9.3548 5.60858 8.79405 6.29187 8.46291 7.09129C8.13178 7.89072 8.04514 8.77039 8.21395 9.61905C8.38276 10.4677 8.79944 11.2473 9.41129 11.8591C10.0231 12.471 10.8027 12.8877 11.6514 13.0565C12.5 13.2253 13.3797 13.1386 14.1791 12.8075C14.9786 12.4764 15.6618 11.9156 16.1426 11.1962C16.6233 10.4767 16.8799 9.63083 16.8799 8.76553C16.8799 7.60521 16.4189 6.49241 15.5985 5.67194C14.778 4.85147 13.6652 4.39053 12.5049 4.39053ZM12.5049 10.6405C12.134 10.6405 11.7715 10.5306 11.4632 10.3245C11.1548 10.1185 10.9145 9.82568 10.7726 9.48307C10.6307 9.14045 10.5936 8.76345 10.6659 8.39974C10.7383 8.03602 10.9168 7.70193 11.1791 7.43971C11.4413 7.17748 11.7754 6.99891 12.1391 6.92656C12.5028 6.85421 12.8798 6.89135 13.2224 7.03326C13.565 7.17517 13.8579 7.4155 14.0639 7.72384C14.2699 8.03218 14.3799 8.39469 14.3799 8.76553C14.3799 9.26281 14.1823 9.73973 13.8307 10.0914C13.4791 10.443 13.0022 10.6405 12.5049 10.6405Z" fill="white"/>
</svg>
