<svg width="17" height="23" viewBox="0 0 17 23" fill="none" xmlns="http://www.w3.org/2000/svg">
<path fill-rule="evenodd" clip-rule="evenodd" d="M11.6667 10.667C11.6667 12.6037 10.1033 14.167 8.16667 14.167C6.23 14.167 4.66667 12.6037 4.66667 10.667V3.66699C4.66667 1.73033 6.23 0.166992 8.16667 0.166992C10.1033 0.166992 11.6667 1.73033 11.6667 3.66699V10.667ZM8.16667 16.5003C11.3867 16.5003 14 13.887 14 10.667H16.3333C16.3333 14.7853 13.2883 18.1687 9.33333 18.7403V22.3337H7V18.7403C3.045 18.1687 0 14.7853 0 10.667H2.33333C2.33333 13.887 4.94667 16.5003 8.16667 16.5003Z" fill="#0C63E7"/>
</svg>
