<svg width="17" height="23" viewBox="0 0 17 23" fill="none" xmlns="http://www.w3.org/2000/svg">
<path fill-rule="evenodd" clip-rule="evenodd" d="M11.6667 10.8334C11.6667 12.77 10.1033 14.3334 8.16667 14.3334C6.23 14.3334 4.66667 12.77 4.66667 10.8334V3.83337C4.66667 1.89671 6.23 0.333374 8.16667 0.333374C10.1033 0.333374 11.6667 1.89671 11.6667 3.83337V10.8334ZM8.16667 16.6667C11.3867 16.6667 14 14.0534 14 10.8334H16.3333C16.3333 14.9517 13.2883 18.335 9.33333 18.9067V22.5H7V18.9067C3.045 18.335 0 14.9517 0 10.8334H2.33333C2.33333 14.0534 4.94667 16.6667 8.16667 16.6667Z" fill="#07C8F9"/>
</svg>
