<svg width="17" height="23" viewBox="0 0 17 23" fill="none" xmlns="http://www.w3.org/2000/svg">
<path fill-rule="evenodd" clip-rule="evenodd" d="M11.6667 10.5C11.6667 12.4367 10.1033 14 8.16667 14C6.23 14 4.66667 12.4367 4.66667 10.5V3.5C4.66667 1.56333 6.23 0 8.16667 0C10.1033 0 11.6667 1.56333 11.6667 3.5V10.5ZM8.16667 16.3333C11.3867 16.3333 14 13.72 14 10.5H16.3333C16.3333 14.6183 13.2883 18.0017 9.33333 18.5733V22.1667H7V18.5733C3.045 18.0017 0 14.6183 0 10.5H2.33333C2.33333 13.72 4.94667 16.3333 8.16667 16.3333Z" fill="black"/>
</svg>
