<svg width="17" height="23" viewBox="0 0 17 23" fill="none" xmlns="http://www.w3.org/2000/svg">
<path fill-rule="evenodd" clip-rule="evenodd" d="M11.6667 10.9996C11.6667 12.9363 10.1033 14.4996 8.16667 14.4996C6.23 14.4996 4.66667 12.9363 4.66667 10.9996V3.99963C4.66667 2.06297 6.23 0.499634 8.16667 0.499634C10.1033 0.499634 11.6667 2.06297 11.6667 3.99963V10.9996ZM8.16667 16.833C11.3867 16.833 14 14.2196 14 10.9996H16.3333C16.3333 15.118 13.2883 18.5013 9.33333 19.073V22.6663H7V19.073C3.045 18.5013 0 15.118 0 10.9996H2.33333C2.33333 14.2196 4.94667 16.833 8.16667 16.833Z" fill="#D8D8D8"/>
</svg>
