<svg width="95" height="75" viewBox="0 0 95 75" fill="none" xmlns="http://www.w3.org/2000/svg">
<circle cx="47.5" cy="27.5" r="27" stroke="#07C8F9"/>
<g filter="url(#filter0_d_200_18424)">
<path d="M47.5 26.1884C46.2611 26.1884 45.2418 25.798 44.4422 25.0173C43.6426 24.2365 43.2428 23.2413 43.2428 22.0317C43.2428 20.814 43.6426 19.8168 44.4422 19.0401C45.2418 18.2634 46.2611 17.875 47.5 17.875C48.7389 17.875 49.7581 18.2634 50.5578 19.0401C51.3574 19.8168 51.7572 20.814 51.7572 22.0317C51.7572 23.2413 51.3574 24.2365 50.5578 25.0173C49.7581 25.798 48.7389 26.1884 47.5 26.1884ZM39.3557 35.75C38.9444 35.75 38.5948 35.6094 38.3069 35.3283C38.019 35.0472 37.875 34.7058 37.875 34.3042V33.3717C37.875 32.6986 38.0576 32.1122 38.4229 31.6126C38.7881 31.113 39.2628 30.7291 39.8469 30.4608C41.1977 29.8744 42.4999 29.4326 43.7536 29.1354C45.0074 28.8383 46.2561 28.6897 47.5 28.6897C48.7439 28.6897 49.9893 28.8415 51.2365 29.1451C52.4836 29.4487 53.7826 29.8873 55.1334 30.4608C55.7306 30.7291 56.2119 31.113 56.5771 31.6126C56.9424 32.1122 57.125 32.6986 57.125 33.3717V34.3042C57.125 34.7058 56.981 35.0472 56.6931 35.3283C56.4052 35.6094 56.0556 35.75 55.6443 35.75H39.3557Z" fill="#07C8F9"/>
</g>
<defs>
<filter id="filter0_d_200_18424" x="-3.075" y="9.425" width="101.15" height="99.775" filterUnits="userSpaceOnUse" color-interpolation-filters="sRGB">
<feFlood flood-opacity="0" result="BackgroundImageFix"/>
<feColorMatrix in="SourceAlpha" type="matrix" values="0 0 0 0 0 0 0 0 0 0 0 0 0 0 0 0 0 0 127 0" result="hardAlpha"/>
<feOffset dy="32.5"/>
<feGaussianBlur stdDeviation="20.475"/>
<feComposite in2="hardAlpha" operator="out"/>
<feColorMatrix type="matrix" values="0 0 0 0 0.262745 0 0 0 0 0.0941176 0 0 0 0 1 0 0 0 0.28 0"/>
<feBlend mode="normal" in2="BackgroundImageFix" result="effect1_dropShadow_200_18424"/>
<feBlend mode="normal" in="SourceGraphic" in2="effect1_dropShadow_200_18424" result="shape"/>
</filter>
</defs>
</svg>
